<svg width="40" height="40" viewBox="0 0 40 40" fill="none" xmlns="http://www.w3.org/2000/svg">
<path fill-rule="evenodd" clip-rule="evenodd" d="M19.141 4.07062C16.7511 4.59478 15.2444 6.86807 15.8296 9.06709C15.9848 9.65031 16.1601 10.0364 16.468 10.473C16.7919 10.9323 17.4555 11.5039 17.9495 11.749L18.356 11.9507L18.3561 12.6322L18.3564 13.3136H15.8312C13.4011 13.3136 13.3014 13.3181 13.1814 13.4333C12.9952 13.6119 12.9806 13.7369 13.0022 14.9672C13.0212 16.0494 13.0281 16.1028 13.1657 16.2349L13.3095 16.3727L15.8329 16.3899L18.3564 16.407V23.038C18.3564 29.3133 18.3505 29.669 18.2459 29.6682C18.0669 29.6667 17.3533 29.4965 16.8097 29.3256C15.3102 28.8542 13.8484 27.9367 12.8402 26.8342C12.4368 26.3931 11.8994 25.6367 11.648 25.1562C11.4693 24.8143 11.0966 23.8287 11.0966 23.6975C11.0966 23.6306 11.2055 23.6115 11.5875 23.6115C12.1244 23.6115 12.3223 23.5308 12.4259 23.2693C12.4668 23.166 12.4577 23.0623 12.3961 22.9271C12.3161 22.7521 10.1622 20.222 9.69515 19.7545C9.45129 19.5105 9.25325 19.4626 8.99511 19.5852C8.78205 19.6863 6.12577 22.7068 6.02893 22.958C5.95899 23.1394 6.0177 23.339 6.18518 23.4887C6.3062 23.5969 6.40657 23.6115 7.02947 23.6115H7.73645L7.81473 24.0204C7.85778 24.2453 8.00254 24.7522 8.13631 25.1467C8.92712 27.4789 10.4742 29.399 12.7251 30.8421C14.2762 31.8365 15.9985 32.4794 17.8671 32.7617L18.3564 32.8356L18.3568 33.0848C18.3575 33.5811 18.4488 33.7333 19.1359 34.3821C20.0037 35.2015 19.9898 35.2013 20.835 34.4091C21.5225 33.7647 21.6391 33.5796 21.6391 33.1321V32.8356L22.1284 32.7609C27.1789 31.9899 31.2064 28.528 32.156 24.1415L32.2707 23.6115H32.9837C33.6095 23.6115 33.712 23.5969 33.8214 23.4919C33.9826 23.3372 34.045 23.0923 33.9657 22.9256C33.8545 22.692 31.2359 19.7083 31.0388 19.5907C30.6612 19.3652 30.5807 19.4305 29.0094 21.2353C27.6726 22.7708 27.5732 22.9014 27.5732 23.1227C27.5732 23.4924 27.7752 23.6115 28.4024 23.6115C28.9854 23.6115 28.975 23.5906 28.7329 24.2677C27.9829 26.3651 26.1206 28.2035 23.8486 29.0893C23.2342 29.3288 22.3705 29.5776 21.9362 29.6401L21.6391 29.6828V23.0449V16.407L24.1698 16.3899L26.7005 16.3727L26.8527 16.2027C27.0022 16.036 27.0051 16.011 27.0051 14.8822C27.0051 13.6855 26.9591 13.4399 26.7182 13.3512C26.662 13.3306 25.4962 13.3136 24.1275 13.3136H21.6391L21.6394 12.6322L21.6395 11.9507L22.061 11.7416C22.7952 11.3773 23.5777 10.5672 23.9214 9.8158C24.6946 8.12526 24.2375 6.17835 22.7911 5.00142C22.2741 4.58067 21.9531 4.40796 21.2919 4.19462C20.6726 3.99478 19.7336 3.94062 19.141 4.07062ZM20.5135 6.65211C20.8311 6.7368 21.3482 7.19711 21.4805 7.51302C21.7083 8.05656 21.5532 8.84266 21.1452 9.21223C20.6252 9.68339 19.8601 9.7857 19.2484 9.46574C18.6953 9.17649 18.4081 8.70799 18.4111 8.10012C18.4132 7.68517 18.5186 7.41949 18.8057 7.10577C19.2072 6.66689 19.8892 6.48577 20.5135 6.65211Z" fill="black"/>
</svg>
