<svg width="40" height="40" viewBox="0 0 40 40" fill="none" xmlns="http://www.w3.org/2000/svg">
<rect x="12.0968" y="5.69531" width="1.74194" height="5.24513" rx="0.870968" fill="#7D7D7D"/>
<rect x="26.0323" y="5.69531" width="1.74194" height="5.24513" rx="0.870968" fill="#7D7D7D"/>
<rect x="25.1611" y="18.8086" width="4.35484" height="3.49675" fill="#7D7D7D"/>
<rect x="19.9355" y="18.8086" width="4.35484" height="3.49675" fill="#7D7D7D"/>
<rect x="25.1611" y="23.1787" width="4.35484" height="3.49675" fill="#7D7D7D"/>
<rect x="19.9355" y="23.1787" width="4.35484" height="3.49675" fill="#7D7D7D"/>
<rect x="14.7095" y="23.1787" width="4.35484" height="3.49675" fill="#7D7D7D"/>
<rect x="9.48389" y="23.1787" width="4.35484" height="3.49675" fill="#7D7D7D"/>
<rect x="25.1611" y="27.5498" width="4.35484" height="3.49675" fill="#7D7D7D"/>
<rect x="19.9355" y="27.5498" width="4.35484" height="3.49675" fill="#7D7D7D"/>
<rect x="14.7095" y="27.5498" width="4.35484" height="3.49675" fill="#7D7D7D"/>
<rect x="9.48389" y="27.5498" width="4.35484" height="3.49675" fill="#7D7D7D"/>
<path fill-rule="evenodd" clip-rule="evenodd" d="M14.7095 8.54492H25.1611V10.0284C25.1611 10.9905 25.941 11.7704 26.9031 11.7704C27.8651 11.7704 28.645 10.9905 28.645 10.0284V8.54492H31C32.1046 8.54492 33 9.44035 33 10.5449V32.5449C33 33.6495 32.1046 34.5449 31 34.5449H8C6.89543 34.5449 6 33.6495 6 32.5449V10.5449C6 9.44035 6.89543 8.54492 8 8.54492H11.2256V10.0284C11.2256 10.9905 12.0055 11.7704 12.9675 11.7704C13.9296 11.7704 14.7095 10.9905 14.7095 10.0284V8.54492ZM9 14.5449C8.44772 14.5449 8 14.9926 8 15.5449V31.5449C8 32.0972 8.44772 32.5449 9 32.5449H30C30.5523 32.5449 31 32.0972 31 31.5449V15.5449C31 14.9926 30.5523 14.5449 30 14.5449H9Z" fill="#7D7D7D"/>
</svg>
