<svg width="130" height="130" viewBox="0 0 130 130" fill="none" xmlns="http://www.w3.org/2000/svg">
<g opacity="0.5">
<path fill-rule="evenodd" clip-rule="evenodd" d="M53.3403 25.2867C51.4327 25.8272 49.7439 27.6018 49.2258 29.6104C48.878 30.959 48.8835 33.8507 49.2354 34.5527C49.7273 35.5345 50.9729 35.9139 51.9653 35.3843C52.8262 34.9249 52.9426 34.6248 53.061 32.5568C53.1793 30.4946 53.3626 29.9636 54.0956 29.5587C54.7337 29.2065 76.2663 29.2065 76.9044 29.5587C77.6374 29.9636 77.8207 30.4946 77.939 32.5568C78.0574 34.6248 78.1738 34.9249 79.0347 35.3843C80.0271 35.9139 81.2727 35.5345 81.7646 34.5527C82.1168 33.8499 82.1218 30.9584 81.7733 29.6068C81.2446 27.5567 79.5622 25.8218 77.5732 25.2757C76.2105 24.9015 54.6654 24.9112 53.3403 25.2867ZM25.2212 40.047C23.1882 40.3587 21.443 41.7169 20.5498 43.6832L20.0751 44.7281L20.0218 52.691C19.9709 60.3009 19.9848 60.7092 20.3359 61.9022C20.7996 63.4769 22.1725 65.1076 23.5494 65.7188C24.1754 65.9966 56.5155 73.6213 57.068 73.6213C57.0927 73.6213 57.14 75.3341 57.1733 77.4278C57.2396 81.604 57.2924 81.8297 58.3248 82.3351C59.1588 82.7435 71.8412 82.7435 72.6752 82.3351C73.7076 81.8297 73.7604 81.604 73.8267 77.4278C73.86 75.3341 73.9073 73.6213 73.932 73.6213C74.4845 73.6213 106.825 65.9966 107.451 65.7188C108.828 65.1076 110.2 63.4769 110.664 61.9022C111.015 60.7092 111.029 60.3009 110.978 52.691L110.925 44.7281L110.444 43.6696C109.814 42.281 108.459 40.9309 107.149 40.3851L106.125 39.9584L66.1223 39.9338C44.121 39.9204 25.7154 39.9712 25.2212 40.047ZM106.047 44.6442C106.342 44.8614 106.634 45.305 106.74 45.6991C107.009 46.6987 106.967 59.9536 106.692 60.7626C106.576 61.1064 106.28 61.5377 106.036 61.7209C105.742 61.9411 100.211 63.2949 89.7681 65.7022L73.9449 69.3498L73.8185 68.2387C73.6457 66.7203 73.3926 66.1758 72.7017 65.8375C71.822 65.4068 59.178 65.4068 58.2983 65.8375C57.6074 66.1758 57.3543 66.7203 57.1815 68.2387L57.0551 69.3498L41.2319 65.7022C30.7893 63.2949 25.2576 61.9411 24.9643 61.7209C24.7198 61.5377 24.4243 61.1064 24.3075 60.7626C24.0394 59.973 23.9889 46.693 24.2504 45.7358C24.3468 45.3834 24.6467 44.9097 24.9172 44.6831L25.4087 44.2713L65.4726 44.2704C105.534 44.2695 105.536 44.2695 106.047 44.6442ZM23.4191 69.9694C23.1069 70.0636 22.6856 70.3814 22.4825 70.6754C22.1154 71.2076 22.1138 71.2817 22.1611 86.3119L22.2086 101.414L22.6793 102.45C23.2788 103.769 24.3705 104.896 25.6491 105.514L26.6533 106H65.5H104.347L105.351 105.514C106.63 104.896 107.721 103.769 108.321 102.45L108.791 101.414L108.839 86.3119C108.886 71.3179 108.884 71.2064 108.52 70.6793C108.109 70.0829 107.15 69.7314 106.373 69.8919C105.705 70.0297 105.04 70.7314 104.902 71.4454C104.841 71.7593 104.791 78.3829 104.79 86.1646C104.79 99.8543 104.779 100.332 104.444 100.898C104.212 101.291 103.877 101.547 103.423 101.677C102.482 101.946 28.525 101.948 27.585 101.679C26.2225 101.288 26.3083 102.278 26.2088 85.8289C26.1149 70.3352 26.1357 70.7041 25.3321 70.1862C24.858 69.8807 24.0255 69.7865 23.4191 69.9694ZM69.5891 74.0799V78.3909H65.5H61.4109V74.0799V69.7688H65.5H69.5891V74.0799Z" fill="#7D7D7D"/>
</g>
</svg>
