<svg width="40" height="40" viewBox="0 0 40 40" fill="none" xmlns="http://www.w3.org/2000/svg">
<path fill-rule="evenodd" clip-rule="evenodd" d="M21.8163 5.06142C19.8675 5.26674 17.9891 6.00241 16.3792 7.19109C15.7003 7.69225 14.635 8.74403 14.153 9.38884C13.1037 10.7927 12.3912 12.4321 12.0726 14.1752C11.9014 15.112 11.9016 16.9793 12.0731 17.9135C12.3951 19.6683 13.074 21.2398 14.1038 22.6143L14.5634 23.2277L13.8632 23.9254L13.1631 24.6231L12.8083 24.2767C12.6132 24.0862 12.3977 23.902 12.3296 23.8673C12.1566 23.7793 11.7684 23.7887 11.5859 23.8854C11.5017 23.93 9.9992 25.402 8.24702 27.1564C5.40498 30.0021 5.05693 30.3699 5.02166 30.5642C4.94165 31.0053 5.01321 31.1031 6.4835 32.5652C7.65003 33.7252 7.89222 33.9403 8.06863 33.9726C8.54171 34.0593 8.43897 34.1468 11.8478 30.7517C13.6042 29.0023 15.0778 27.5021 15.1225 27.418C15.2193 27.2357 15.2287 26.8479 15.1406 26.6751C15.1059 26.6071 14.9214 26.3919 14.7307 26.197L14.3839 25.8426L15.0824 25.1432L15.7809 24.4439L16.3949 24.9029C17.771 25.9316 19.3442 26.6097 21.101 26.9314C22.0362 27.1026 23.9056 27.1029 24.8435 26.9319C26.5912 26.6132 28.2215 25.9046 29.6496 24.843C30.2215 24.4179 31.3045 23.3357 31.758 22.7361C32.8276 21.322 33.5502 19.6735 33.8718 17.9135C34.0427 16.9784 34.0427 15.1103 33.8718 14.1752C32.8189 8.41393 27.5809 4.45405 21.8163 5.06142ZM24.5538 6.83594C26.499 7.18996 28.1862 8.06241 29.5475 9.41813C30.9485 10.8133 31.826 12.4882 32.196 14.4733C32.331 15.198 32.331 16.8908 32.196 17.6154C31.4565 21.5824 28.5165 24.5193 24.545 25.2579C23.8195 25.3928 22.1249 25.3928 21.3994 25.2579C19.4102 24.8879 17.7282 24.0081 16.3384 22.6105C12.1906 18.4393 12.8936 11.5476 17.8016 8.26671C18.9909 7.47169 20.4324 6.94402 21.9331 6.75432C22.4763 6.68562 23.9863 6.73269 24.5538 6.83594ZM22.1783 8.43245C20.3535 8.65686 18.8252 9.40125 17.5563 10.6838C16.4295 11.8228 15.7797 13.0386 15.4483 14.6283C15.309 15.2964 15.309 16.7923 15.4483 17.4604C15.7801 19.0519 16.4316 20.2702 17.5563 21.4023C18.6984 22.5519 19.9464 23.2253 21.5546 23.5599C22.2155 23.6973 23.712 23.6972 24.4035 23.5596C25.9337 23.2551 27.2016 22.5768 28.3387 21.4542C29.4808 20.3268 30.161 19.0676 30.4961 17.4604C30.6354 16.7924 30.6354 15.2964 30.4961 14.6283C30.2782 13.5833 29.8744 12.6114 29.2957 11.7396C28.9387 11.2017 27.831 10.0913 27.3054 9.7445C26.3914 9.14132 25.4059 8.72716 24.4341 8.53786C23.9771 8.44882 22.5773 8.3834 22.1783 8.43245ZM24.3349 10.258C25.4565 10.5501 26.4018 11.0803 27.1718 11.8494C27.9374 12.6143 28.4552 13.5318 28.7705 14.6832C28.9394 15.2997 28.9394 16.789 28.7705 17.4055C28.4552 18.5569 27.9374 19.4745 27.1718 20.2393C26.4061 21.0041 25.4875 21.5212 24.3349 21.8363C23.7177 22.0049 22.2267 22.0049 21.6095 21.8363C20.4569 21.5212 19.5383 21.0041 18.7726 20.2393C16.581 18.0501 16.4398 14.5752 18.4457 12.1948C19.3142 11.1641 20.7394 10.3626 22.0649 10.1595C22.6223 10.0741 23.8296 10.1265 24.3349 10.258ZM26.0059 13.5885C25.9123 13.6371 25.0002 14.5089 23.9788 15.5257L22.1219 17.3745L21.1152 16.3752C20.5616 15.8256 20.027 15.3351 19.9272 15.2853C19.2347 14.9398 18.4642 15.7094 18.81 16.4012C18.9351 16.6516 21.4773 19.1986 21.7366 19.3335C21.9925 19.4665 22.2374 19.4728 22.4789 19.3524C22.7292 19.2276 26.9799 14.9897 27.1155 14.7297C27.2556 14.4609 27.2543 14.2279 27.1109 13.9471C26.9117 13.557 26.3913 13.3881 26.0059 13.5885ZM12.5956 26.4385L13.1894 27.0336L10.7239 29.4968L8.25853 31.96L7.64799 31.3521L7.03745 30.7441L9.49004 28.2938C10.839 26.946 11.956 25.8434 11.9723 25.8434C11.9886 25.8434 12.2691 26.1112 12.5956 26.4385Z" fill="black"/>
</svg>
