<svg width="236" height="36" viewBox="0 0 236 36" fill="none" xmlns="http://www.w3.org/2000/svg">
<path d="M21.9141 29.9375V35H4.75781V29.9375H21.9141ZM6.70312 0.875V35H0.257812V0.875H6.70312ZM52.3125 17.0703V18.8281C52.3125 21.4062 51.9688 23.7266 51.2812 25.7891C50.5938 27.8359 49.6172 29.5781 48.3516 31.0156C47.0859 32.4531 45.5781 33.5547 43.8281 34.3203C42.0781 35.0859 40.1328 35.4688 37.9922 35.4688C35.8828 35.4688 33.9453 35.0859 32.1797 34.3203C30.4297 33.5547 28.9141 32.4531 27.6328 31.0156C26.3516 29.5781 25.3594 27.8359 24.6562 25.7891C23.9531 23.7266 23.6016 21.4062 23.6016 18.8281V17.0703C23.6016 14.4766 23.9531 12.1562 24.6562 10.1094C25.3594 8.0625 26.3438 6.32031 27.6094 4.88281C28.875 3.42969 30.3828 2.32031 32.1328 1.55469C33.8984 0.789062 35.8359 0.40625 37.9453 0.40625C40.0859 0.40625 42.0312 0.789062 43.7812 1.55469C45.5312 2.32031 47.0391 3.42969 48.3047 4.88281C49.5859 6.32031 50.5703 8.0625 51.2578 10.1094C51.9609 12.1562 52.3125 14.4766 52.3125 17.0703ZM45.7969 18.8281V17.0234C45.7969 15.1641 45.625 13.5312 45.2812 12.125C44.9375 10.7031 44.4297 9.50781 43.7578 8.53906C43.0859 7.57031 42.2578 6.84375 41.2734 6.35938C40.2891 5.85938 39.1797 5.60938 37.9453 5.60938C36.6953 5.60938 35.5859 5.85938 34.6172 6.35938C33.6641 6.84375 32.8516 7.57031 32.1797 8.53906C31.5078 9.50781 30.9922 10.7031 30.6328 12.125C30.2891 13.5312 30.1172 15.1641 30.1172 17.0234V18.8281C30.1172 20.6719 30.2891 22.3047 30.6328 23.7266C30.9922 25.1484 31.5078 26.3516 32.1797 27.3359C32.8672 28.3047 33.6953 29.0391 34.6641 29.5391C35.6328 30.0391 36.7422 30.2891 37.9922 30.2891C39.2422 30.2891 40.3516 30.0391 41.3203 29.5391C42.2891 29.0391 43.1016 28.3047 43.7578 27.3359C44.4297 26.3516 44.9375 25.1484 45.2812 23.7266C45.625 22.3047 45.7969 20.6719 45.7969 18.8281ZM84.3984 17.3516V30.6406C83.8984 31.2812 83.1094 31.9766 82.0312 32.7266C80.9688 33.4766 79.5781 34.125 77.8594 34.6719C76.1406 35.2031 74.0312 35.4688 71.5312 35.4688C69.3594 35.4688 67.375 35.1094 65.5781 34.3906C63.7812 33.6562 62.2344 32.5859 60.9375 31.1797C59.6406 29.7734 58.6406 28.0547 57.9375 26.0234C57.2344 23.9922 56.8828 21.6719 56.8828 19.0625V16.8125C56.8828 14.2031 57.2109 11.8828 57.8672 9.85156C58.5391 7.82031 59.4922 6.10156 60.7266 4.69531C61.9766 3.28906 63.4688 2.21875 65.2031 1.48438C66.9531 0.75 68.9062 0.382812 71.0625 0.382812C73.9531 0.382812 76.3281 0.859375 78.1875 1.8125C80.0625 2.76563 81.5 4.07813 82.5 5.75C83.5 7.40625 84.125 9.3125 84.375 11.4688H78.0938C77.9219 10.2812 77.5781 9.24219 77.0625 8.35156C76.5469 7.44531 75.8125 6.74219 74.8594 6.24219C73.9219 5.72656 72.7031 5.46875 71.2031 5.46875C69.9375 5.46875 68.8203 5.71875 67.8516 6.21875C66.8828 6.71875 66.0703 7.44531 65.4141 8.39844C64.7578 9.35156 64.2578 10.5312 63.9141 11.9375C63.5859 13.3438 63.4219 14.9531 63.4219 16.7656V19.0625C63.4219 20.8906 63.6094 22.5156 63.9844 23.9375C64.3594 25.3438 64.8984 26.5312 65.6016 27.5C66.3203 28.4531 67.2031 29.1797 68.25 29.6797C69.3125 30.1641 70.5156 30.4062 71.8594 30.4062C73.0781 30.4062 74.0859 30.3047 74.8828 30.1016C75.6953 29.8828 76.3438 29.625 76.8281 29.3281C77.3125 29.0312 77.6875 28.7422 77.9531 28.4609V22.0625H71.1797V17.3516H84.3984ZM118.125 17.0703V18.8281C118.125 21.4062 117.781 23.7266 117.094 25.7891C116.406 27.8359 115.43 29.5781 114.164 31.0156C112.898 32.4531 111.391 33.5547 109.641 34.3203C107.891 35.0859 105.945 35.4688 103.805 35.4688C101.695 35.4688 99.7578 35.0859 97.9922 34.3203C96.2422 33.5547 94.7266 32.4531 93.4453 31.0156C92.1641 29.5781 91.1719 27.8359 90.4688 25.7891C89.7656 23.7266 89.4141 21.4062 89.4141 18.8281V17.0703C89.4141 14.4766 89.7656 12.1562 90.4688 10.1094C91.1719 8.0625 92.1562 6.32031 93.4219 4.88281C94.6875 3.42969 96.1953 2.32031 97.9453 1.55469C99.7109 0.789062 101.648 0.40625 103.758 0.40625C105.898 0.40625 107.844 0.789062 109.594 1.55469C111.344 2.32031 112.852 3.42969 114.117 4.88281C115.398 6.32031 116.383 8.0625 117.07 10.1094C117.773 12.1562 118.125 14.4766 118.125 17.0703ZM111.609 18.8281V17.0234C111.609 15.1641 111.438 13.5312 111.094 12.125C110.75 10.7031 110.242 9.50781 109.57 8.53906C108.898 7.57031 108.07 6.84375 107.086 6.35938C106.102 5.85938 104.992 5.60938 103.758 5.60938C102.508 5.60938 101.398 5.85938 100.43 6.35938C99.4766 6.84375 98.6641 7.57031 97.9922 8.53906C97.3203 9.50781 96.8047 10.7031 96.4453 12.125C96.1016 13.5312 95.9297 15.1641 95.9297 17.0234V18.8281C95.9297 20.6719 96.1016 22.3047 96.4453 23.7266C96.8047 25.1484 97.3203 26.3516 97.9922 27.3359C98.6797 28.3047 99.5078 29.0391 100.477 29.5391C101.445 30.0391 102.555 30.2891 103.805 30.2891C105.055 30.2891 106.164 30.0391 107.133 29.5391C108.102 29.0391 108.914 28.3047 109.57 27.3359C110.242 26.3516 110.75 25.1484 111.094 23.7266C111.438 22.3047 111.609 20.6719 111.609 18.8281ZM136.875 0.875V35H130.453V0.875H136.875ZM147.469 0.875V5.96094H119.977V0.875H147.469ZM156.117 0.875L163.617 16.7891L171.164 0.875H178.242L166.898 22.5078V35H160.359V22.5078L148.992 0.875H156.117ZM194.789 22.5547H186V17.4922H194.789C196.227 17.4922 197.391 17.2578 198.281 16.7891C199.188 16.3047 199.852 15.6484 200.273 14.8203C200.695 13.9766 200.906 13.0156 200.906 11.9375C200.906 10.8906 200.695 9.91406 200.273 9.00781C199.852 8.10156 199.188 7.36719 198.281 6.80469C197.391 6.24219 196.227 5.96094 194.789 5.96094H188.109V35H181.664V0.875H194.789C197.445 0.875 199.711 1.35156 201.586 2.30469C203.477 3.24219 204.914 4.54688 205.898 6.21875C206.898 7.875 207.398 9.76562 207.398 11.8906C207.398 14.0938 206.898 15.9922 205.898 17.5859C204.914 19.1797 203.477 20.4062 201.586 21.2656C199.711 22.125 197.445 22.5547 194.789 22.5547ZM235.078 29.9375V35H216.938V29.9375H235.078ZM218.906 0.875V35H212.461V0.875H218.906ZM232.711 14.9609V19.9062H216.938V14.9609H232.711ZM235.008 0.875V5.96094H216.938V0.875H235.008Z" fill="white"/>
</svg>
