<svg width="40" height="40" viewBox="0 0 40 40" fill="none" xmlns="http://www.w3.org/2000/svg">
<path fill-rule="evenodd" clip-rule="evenodd" d="M17.9869 5.11664C16.7671 5.44615 15.8103 6.42107 15.4885 7.66228C15.4116 7.95903 15.3808 8.46617 15.3808 9.43978V10.8021H14.6021C13.3504 10.8021 12.5866 11.0758 11.839 11.7921C11.6133 12.0083 11.3285 12.3742 11.206 12.6052C10.7913 13.3867 10.7621 13.6304 10.7621 16.3125V18.7474L9.87808 19.0642C9.39189 19.2385 8.8046 19.4754 8.57301 19.5907C7.42902 20.1604 6.71363 21.3406 6.70995 22.6641C6.70836 23.2425 6.76313 23.4449 8.13077 27.912C8.91314 30.4675 9.53024 32.5814 9.50209 32.6097C9.47395 32.6379 9.20202 32.6593 8.89776 32.6571C8.20763 32.6522 7.7039 32.4896 7.06104 32.0643C6.78045 31.8786 6.45289 31.7243 6.29369 31.7028C5.49768 31.5956 4.87156 32.2908 5.02261 33.1141C5.12646 33.6803 6.36203 34.5145 7.58678 34.8453C8.21694 35.0155 9.5337 35.016 10.2209 34.8463C10.8816 34.6831 11.7507 34.2492 12.4098 33.7536C13.276 33.1023 14.124 32.8769 15.0327 33.0565C15.5786 33.1644 15.9844 33.364 16.6897 33.872C18.3064 35.0361 20.1102 35.3057 21.8985 34.6506C22.4958 34.4318 23.025 34.1331 23.4996 33.7468C24.4051 33.0099 25.5964 32.8056 26.6589 33.205C26.877 33.2869 27.3271 33.5531 27.659 33.7964C28.8182 34.6459 29.7769 34.9728 31.1132 34.9739C31.7601 34.9745 32.0705 34.9384 32.5205 34.8101C33.7169 34.4689 34.8723 33.6673 34.9771 33.1056C35.1298 32.2881 34.4975 31.5961 33.6965 31.7041C33.5229 31.7274 33.2407 31.8619 32.9809 32.045C32.3677 32.4771 31.8504 32.6484 31.1374 32.6553C30.8133 32.6585 30.5251 32.6379 30.4969 32.6097C30.4687 32.5814 31.0746 30.5097 31.8433 28.0059C33.18 23.6519 33.242 23.4233 33.2658 22.7629C33.2946 21.9665 33.1486 21.4112 32.7442 20.7791C32.2388 19.9891 31.6782 19.6217 30.1211 19.0598L29.2372 18.7409L29.237 16.3092C29.2369 13.6307 29.2076 13.3865 28.7931 12.6052C28.6705 12.3742 28.3857 12.0083 28.16 11.7921C27.4124 11.0758 26.6486 10.8021 25.3969 10.8021H24.6182V9.43978C24.6182 8.46617 24.5875 7.95903 24.5105 7.66228C24.1846 6.40505 23.2258 5.43876 21.9811 5.11301C21.3982 4.96047 18.5554 4.96301 17.9869 5.11664ZM21.7761 7.50778C22.2541 7.86666 22.2707 7.92814 22.2952 9.42963L22.3176 10.8021H20.0039H17.6902V9.53802C17.6902 8.22779 17.7303 7.99035 18.0017 7.69346C18.3145 7.35118 18.4857 7.32225 20.0847 7.34088C21.4644 7.35698 21.5921 7.36959 21.7761 7.50778ZM26.2296 13.221C26.5319 13.3479 26.838 13.7138 26.8915 14.0123C26.9146 14.1408 26.9239 15.0637 26.9125 16.0631L26.8915 17.8804L24.546 17.0215C21.1943 15.794 21.1641 15.7858 20.0356 15.7799C18.8819 15.7739 18.8482 15.783 15.5612 16.9885L13.1076 17.8884L13.0866 16.0671C13.0751 15.0654 13.0845 14.1408 13.1075 14.0123C13.1597 13.7214 13.4632 13.3511 13.7535 13.2241C14.083 13.0799 25.8865 13.077 26.2296 13.221ZM18.8448 25.3766V32.4834L18.6103 32.3619C18.4813 32.2952 18.0939 32.0373 17.7493 31.789C16.979 31.2338 16.2567 30.9243 15.3713 30.7697C14.2556 30.575 13.0403 30.7507 12.0584 31.2486L11.6341 31.4638L11.4056 30.7212C9.63849 24.9746 9.03041 22.9045 9.03026 22.6342C9.03012 22.2944 9.15035 22.0046 9.37717 21.7985C9.48823 21.6975 18.537 18.3127 18.7907 18.2772C18.8204 18.273 18.8448 21.4678 18.8448 25.3766ZM25.845 19.9718C28.3256 20.8786 30.4406 21.6815 30.5449 21.7561C30.7906 21.9319 30.9689 22.315 30.9689 22.6669C30.9688 22.8215 30.4687 24.5786 29.8473 26.6072C29.2305 28.6209 28.6448 30.535 28.5458 30.8607L28.3658 31.4529L27.832 31.2052C26.5542 30.6121 25.0878 30.5281 23.7883 30.9737C23.1635 31.1879 22.851 31.3556 22.2006 31.8251C21.8831 32.0543 21.5178 32.2963 21.3887 32.3627L21.1542 32.4834V25.3688C21.1542 19.707 21.1726 18.2611 21.2444 18.2887C21.294 18.3077 23.3642 19.0651 25.845 19.9718Z" fill="black"/>
</svg>
